<svg width="81" height="75" viewBox="0 0 81 75" fill="none" xmlns="http://www.w3.org/2000/svg">
<g filter="url(#filter0_f_3_62)">
<path d="M22.1657 31.9718C19.4585 37.6118 22.5417 44.2858 24.4217 46.9177C24.9857 47.7637 26.6776 49.9069 28.9336 51.7117C31.1896 53.5165 37.3936 53.4037 40.2136 53.1217C43.5975 51.9937 50.0835 49.1737 48.9555 46.9177C47.5455 44.0978 48.6735 37.6118 54.5955 38.7398C60.5175 39.8677 59.1075 30.5618 59.1075 25.4859C59.1075 20.4099 43.5975 20.1279 40.2136 22.6659C36.8296 25.2039 25.5497 24.9219 22.1657 31.9718Z" fill="#FF6D12"/>
</g>
<path d="M21.946 31.8159C19.2388 37.4558 22.322 44.1298 24.202 46.7618C24.766 47.6078 26.458 49.7509 28.714 51.5557C30.9699 53.3605 37.1739 53.2477 39.9939 52.9657C43.3779 51.8377 49.8638 49.0178 48.7359 46.7618C47.3259 43.9418 48.4539 37.4558 54.3758 38.5838C60.2978 39.7118 58.8878 30.4059 58.8878 25.3299C58.8878 20.2539 43.3779 19.9719 39.9939 22.5099C36.6099 25.0479 25.33 24.7659 21.946 31.8159Z" fill="#FF6D12"/>
<defs>
<filter id="filter0_f_3_62" x="-2.47955e-05" y="-2.47955e-05" width="80.3542" height="74.3832" filterUnits="userSpaceOnUse" color-interpolation-filters="sRGB">
<feFlood flood-opacity="0" result="BackgroundImageFix"/>
<feBlend mode="normal" in="SourceGraphic" in2="BackgroundImageFix" result="shape"/>
<feGaussianBlur stdDeviation="10.55" result="effect1_foregroundBlur_3_62"/>
</filter>
</defs>
</svg>
