<svg width="81" height="75" viewBox="0 0 81 75" fill="none" xmlns="http://www.w3.org/2000/svg">
<g filter="url(#filter0_f_3_38)">
<path d="M22.1657 31.9718C19.4585 37.6118 22.5417 44.2858 24.4217 46.9177C24.9857 47.7637 26.6777 49.9069 28.9337 51.7117C31.1896 53.5165 37.3936 53.4037 40.2136 53.1217C43.5976 51.9937 50.0835 49.1737 48.9555 46.9177C47.5456 44.0978 48.6736 37.6118 54.5955 38.7398C60.5175 39.8677 59.1075 30.5618 59.1075 25.4859C59.1075 20.4099 43.5976 20.1279 40.2136 22.6659C36.8296 25.2039 25.5497 24.9219 22.1657 31.9718Z" fill="#FF1216"/>
</g>
<path d="M21.946 31.8159C19.2388 37.4559 22.322 44.1299 24.202 46.7619C24.766 47.6078 26.458 49.751 28.714 51.5558C30.9699 53.3606 37.1739 53.2478 39.9939 52.9658C43.3779 51.8378 49.8638 49.0178 48.7359 46.7619C47.3259 43.9419 48.4539 37.4559 54.3758 38.5839C60.2978 39.7119 58.8878 30.4059 58.8878 25.33C58.8878 20.254 43.3779 19.972 39.9939 22.51C36.6099 25.048 25.33 24.766 21.946 31.8159Z" fill="#FF1216"/>
<defs>
<filter id="filter0_f_3_38" x="5.72205e-06" y="-2.47955e-05" width="80.3542" height="74.3832" filterUnits="userSpaceOnUse" color-interpolation-filters="sRGB">
<feFlood flood-opacity="0" result="BackgroundImageFix"/>
<feBlend mode="normal" in="SourceGraphic" in2="BackgroundImageFix" result="shape"/>
<feGaussianBlur stdDeviation="10.55" result="effect1_foregroundBlur_3_38"/>
</filter>
</defs>
</svg>
